<svg width="423" height="332" viewBox="0 0 423 332" fill="none" xmlns="http://www.w3.org/2000/svg">
<g opacity="0.04">
<path d="M113.782 421.981L100.81 435.32L76.8315 412.001L50.4651 439.112L74.4432 462.432L61.3021 475.944L0.707656 417.014L13.8487 403.502L38.0865 427.074L64.4529 399.963L40.2151 376.391L53.1877 363.052L113.782 421.981Z" fill="#14CCAB"/>
<path d="M178.134 353.559L179.173 354.57L164.6 369.554L129.612 365.696L120.093 375.484L140.003 394.847L126.862 408.359L66.2672 349.43C75.8703 339.555 84.7152 330.46 94.2341 320.672C108.47 306.034 125.833 307.751 136.481 318.106C144.274 325.854 149.011 335.011 141.878 350.659L178.134 353.559ZM105.834 331.953L91.0078 347.198L108.667 364.372L123.661 348.954C129.726 342.717 127.663 335.486 123.854 331.782C119.615 327.828 111.983 325.63 105.834 331.953Z" fill="#14CCAB"/>
<path d="M218.392 314.243L169.83 267.015L151.887 285.465L139.855 273.763C157.039 256.093 171.528 241.195 188.797 223.438L200.829 235.14L182.886 253.589L231.449 300.817L218.392 314.243Z" fill="#14CCAB"/>
<path d="M241.684 214.606L237.172 209.375L248.544 197.681C262.74 211.488 277.11 225.462 291.306 239.269L280.355 250.529L274.314 246.002C276.036 253.238 271.786 261.072 267.829 265.314C255.449 278.217 238.125 279.404 224.015 265.682C209.819 251.875 211.028 234.006 223.499 221.528C228.722 216.158 235.685 213.154 241.684 214.606ZM235.757 230.92C229.691 237.157 229.047 246.305 236.146 253.209C243.244 260.112 252.285 259.129 258.35 252.892C265.173 245.876 263.931 236.242 258.564 231.022C252.418 225.045 243.001 223.471 235.757 230.92Z" fill="#14CCAB"/>
<path d="M241.216 169.711L253.262 157.325L313.77 216.17L301.724 228.557L241.216 169.711Z" fill="#14CCAB"/>
<path d="M263.67 146.623L275.8 134.15L310.339 167.74L305.931 138.846L320.251 124.121L321.03 124.879L325.087 159.33L364.333 162.273L365.286 163.199L350.713 178.184L317.524 174.727L336.308 192.995L324.178 205.468L263.67 146.623Z" fill="#14CCAB"/>
<path d="M391.312 101.798L360.734 133.241C365.478 136.675 372.729 135.974 379.553 128.958C382.838 125.58 386.608 120.145 386.959 114.588L401.573 115.148C401.61 124.117 396.267 133.247 390.034 139.657C374.955 155.161 357.611 154.81 343.934 141.509C330.949 128.881 330.368 111.294 343.93 97.3482C358.082 82.7964 376.437 82.1079 391.312 101.798ZM351.644 124.401L371.356 104.133C366.429 99.8465 359.632 102.506 354.578 107.703C349.692 112.727 348.582 119.064 351.644 124.401Z" fill="#14CCAB"/>
<path d="M374.048 68.8041L385.336 57.1973L390.937 60.7905C389.735 54.0597 391.71 48.5648 396.343 43.8008C400.302 39.7298 404.799 37.5303 410.431 37.1084L415.245 51.9026C411.752 52.5502 408.954 54.0422 406.426 56.6407C401.204 62.011 400.202 69.9691 406.607 76.1988L428.854 97.8344L416.724 110.307L374.048 68.8041Z" fill="#14CCAB"/>
<path d="M448.721 0.508087L450.531 14.2346C445.163 15.2506 441.349 17.4404 437.559 21.3382C433.6 25.4092 433.049 28.9192 435.127 30.9396C437.464 33.2126 440.869 32.31 444.999 28.2365C453.429 20.0871 465.016 11.6366 476.873 22.9991C483.883 29.6473 486.273 42.0843 473.047 55.6832C466.898 62.0063 459.368 67.3241 446.233 68.707L442.626 54.7498C452.093 53.6754 458.015 49.491 462.482 45.0711C466.107 41.5173 467.415 37.2278 465.08 35.1256C463.089 33.1893 460.012 33.0624 454.195 38.6973C446.099 46.3294 433.122 53.0914 423.081 43.3259C413.386 33.8972 418.247 20.7591 427.26 11.491C433.662 4.90805 440.445 1.22389 448.721 0.508087Z" fill="#14CCAB"/>
</g>
</svg>
